# xmcd
#
# Track frame offsets:
#   182
#   15237
#   28265
#   44077
#   55272
#   73977
#   85777
#   110980
#   129440
#   142255
#   159675
#   170797
#   192525
#   206620
#   218845
#   232125
#
# Disc length: 3290 seconds
#
# Revision: 2
# Processed by: cddbd v1.5.2PL0 Copyright (c) Steve Scherf et al.
# Submitted via: Media_Universe 3.0
#
DISCID=020cd810
DTITLE=Various Artist -  Country and Western
DYEAR=1989
DGENRE=Country
TTITLE0=I love you
TTITLE1=Folsom prison blues
TTITLE2=L.A. international airport
TTITLE3=Blue moon of Kentucky
TTITLE4=Somebody done somebody wrong song
TTITLE5=Oh, lonesome me
TTITLE6=City of New Orleans
TTITLE7=Just another rhinestone
TTITLE8=Six two seven double O
TTITLE9=Honky Tonk music
TTITLE10=Bedroom eyes
TTITLE11=El Paso
TTITLE12=Detroit city
TTITLE13=Jackson
TTITLE14=My baby thinks he´s a train
TTITLE15=Exclusive dreams
EXTD=KingDisc CD
EXTT0=
EXTT1=
EXTT2=
EXTT3=
EXTT4=
EXTT5=
EXTT6=
EXTT7=
EXTT8=
EXTT9=
EXTT10=
EXTT11=
EXTT12=
EXTT13=
EXTT14=
EXTT15=
PLAYORDER=
